<svg height="1390" width="720" xmlns="http://www.w3.org/2000/svg">
<rect height="1390" fill="#555" width="720"></rect>
<text fill="#7f7" font-family="Courier New" font-size="12" xml:space="preserve">
<tspan x="10" y="26">9 megabytes installed</tspan>
<tspan x="10" y="42"></tspan>
<tspan x="10" y="58">node_modules</tspan>
<tspan x="10" y="74">└─┬ grunt-recess@1.0.1 </tspan>
<tspan x="10" y="90">  ├── async@0.9.2 </tspan>
<tspan x="10" y="106">  ├─┬ chalk@1.1.3 </tspan>
<tspan x="10" y="122">  │ ├── ansi-styles@2.2.1 </tspan>
<tspan x="10" y="138">  │ ├── escape-string-regexp@1.0.5 </tspan>
<tspan x="10" y="154">  │ ├─┬ has-ansi@2.0.0 </tspan>
<tspan x="10" y="170">  │ │ └── ansi-regex@2.1.1 </tspan>
<tspan x="10" y="186">  │ ├── strip-ansi@3.0.1 </tspan>
<tspan x="10" y="202">  │ └── supports-color@2.0.0 </tspan>
<tspan x="10" y="218">  ├── lodash@3.10.1 </tspan>
<tspan x="10" y="234">  ├─┬ maxmin@1.1.0 </tspan>
<tspan x="10" y="250">  │ ├─┬ figures@1.7.0 </tspan>
<tspan x="10" y="266">  │ │ └── object-assign@4.1.1 </tspan>
<tspan x="10" y="282">  │ ├─┬ gzip-size@1.0.0 </tspan>
<tspan x="10" y="298">  │ │ ├─┬ browserify-zlib@0.1.4 </tspan>
<tspan x="10" y="314">  │ │ │ └── pako@0.2.9 </tspan>
<tspan x="10" y="330">  │ │ └─┬ concat-stream@1.6.0 </tspan>
<tspan x="10" y="346">  │ │   ├── inherits@2.0.3 </tspan>
<tspan x="10" y="362">  │ │   ├─┬ readable-stream@2.2.9 </tspan>
<tspan x="10" y="378">  │ │   │ ├── buffer-shims@1.0.0 </tspan>
<tspan x="10" y="394">  │ │   │ ├── core-util-is@1.0.2 </tspan>
<tspan x="10" y="410">  │ │   │ ├── isarray@1.0.0 </tspan>
<tspan x="10" y="426">  │ │   │ ├── process-nextick-args@1.0.7 </tspan>
<tspan x="10" y="442">  │ │   │ ├── string_decoder@1.0.0 </tspan>
<tspan x="10" y="458">  │ │   │ └── util-deprecate@1.0.2 </tspan>
<tspan x="10" y="474">  │ │   └── typedarray@0.0.6 </tspan>
<tspan x="10" y="490">  │ └─┬ pretty-bytes@1.0.4 </tspan>
<tspan x="10" y="506">  │   ├── get-stdin@4.0.1 </tspan>
<tspan x="10" y="522">  │   └─┬ meow@3.7.0 </tspan>
<tspan x="10" y="538">  │     ├─┬ camelcase-keys@2.1.0 </tspan>
<tspan x="10" y="554">  │     │ └── camelcase@2.1.1 </tspan>
<tspan x="10" y="570">  │     ├── decamelize@1.2.0 </tspan>
<tspan x="10" y="586">  │     ├─┬ loud-rejection@1.6.0 </tspan>
<tspan x="10" y="602">  │     │ ├─┬ currently-unhandled@0.4.1 </tspan>
<tspan x="10" y="618">  │     │ │ └── array-find-index@1.0.2 </tspan>
<tspan x="10" y="634">  │     │ └── signal-exit@3.0.2 </tspan>
<tspan x="10" y="650">  │     ├── map-obj@1.0.1 </tspan>
<tspan x="10" y="666">  │     ├─┬ normalize-package-data@2.3.8 </tspan>
<tspan x="10" y="682">  │     │ ├── hosted-git-info@2.4.2 </tspan>
<tspan x="10" y="698">  │     │ ├─┬ is-builtin-module@1.0.0 </tspan>
<tspan x="10" y="714">  │     │ │ └── builtin-modules@1.1.1 </tspan>
<tspan x="10" y="730">  │     │ ├── semver@5.3.0 </tspan>
<tspan x="10" y="746">  │     │ └─┬ validate-npm-package-license@3.0.1 </tspan>
<tspan x="10" y="762">  │     │   ├─┬ spdx-correct@1.0.2 </tspan>
<tspan x="10" y="778">  │     │   │ └── spdx-license-ids@1.2.2 </tspan>
<tspan x="10" y="794">  │     │   └── spdx-expression-parse@1.0.4 </tspan>
<tspan x="10" y="810">  │     ├─┬ read-pkg-up@1.0.1 </tspan>
<tspan x="10" y="826">  │     │ ├─┬ find-up@1.1.2 </tspan>
<tspan x="10" y="842">  │     │ │ ├── path-exists@2.1.0 </tspan>
<tspan x="10" y="858">  │     │ │ └─┬ pinkie-promise@2.0.1 </tspan>
<tspan x="10" y="874">  │     │ │   └── pinkie@2.0.4 </tspan>
<tspan x="10" y="890">  │     │ └─┬ read-pkg@1.1.0 </tspan>
<tspan x="10" y="906">  │     │   ├─┬ load-json-file@1.1.0 </tspan>
<tspan x="10" y="922">  │     │   │ ├── graceful-fs@4.1.11 </tspan>
<tspan x="10" y="938">  │     │   │ ├─┬ parse-json@2.2.0 </tspan>
<tspan x="10" y="954">  │     │   │ │ └─┬ error-ex@1.3.1 </tspan>
<tspan x="10" y="970">  │     │   │ │   └── is-arrayish@0.2.1 </tspan>
<tspan x="10" y="986">  │     │   │ ├── pify@2.3.0 </tspan>
<tspan x="10" y="1002">  │     │   │ └─┬ strip-bom@2.0.0 </tspan>
<tspan x="10" y="1018">  │     │   │   └── is-utf8@0.2.1 </tspan>
<tspan x="10" y="1034">  │     │   └── path-type@1.1.0 </tspan>
<tspan x="10" y="1050">  │     ├─┬ redent@1.0.0 </tspan>
<tspan x="10" y="1066">  │     │ ├─┬ indent-string@2.1.0 </tspan>
<tspan x="10" y="1082">  │     │ │ └─┬ repeating@2.0.1 </tspan>
<tspan x="10" y="1098">  │     │ │   └─┬ is-finite@1.0.2 </tspan>
<tspan x="10" y="1114">  │     │ │     └── number-is-nan@1.0.1 </tspan>
<tspan x="10" y="1130">  │     │ └── strip-indent@1.0.1 </tspan>
<tspan x="10" y="1146">  │     └── trim-newlines@1.0.0 </tspan>
<tspan x="10" y="1162">  └─┬ recess@1.1.9 </tspan>
<tspan x="10" y="1178">    ├── colors@1.1.2 </tspan>
<tspan x="10" y="1194">    ├─┬ less@1.3.3 </tspan>
<tspan x="10" y="1210">    │ └── ycssmin@1.0.1 </tspan>
<tspan x="10" y="1226">    ├─┬ nopt@4.0.1 </tspan>
<tspan x="10" y="1242">    │ ├── abbrev@1.1.0 </tspan>
<tspan x="10" y="1258">    │ └─┬ osenv@0.1.4 </tspan>
<tspan x="10" y="1274">    │   ├── os-homedir@1.0.2 </tspan>
<tspan x="10" y="1290">    │   └── os-tmpdir@1.0.2 </tspan>
<tspan x="10" y="1306">    ├── underscore@1.8.3 </tspan>
<tspan x="10" y="1322">    └─┬ watch@1.0.2 </tspan>
<tspan x="10" y="1338">      ├─┬ exec-sh@0.2.0 </tspan>
<tspan x="10" y="1354">      │ └── merge@1.2.0 </tspan>
<tspan x="10" y="1370">      └── minimist@1.2.0</tspan>
</text>
</svg>
